<?xml version="1.0" encoding="UTF-8" standalone="no"?>
<svg xmlns:svg="http://www.w3.org/2000/svg" xmlns="http://www.w3.org/2000/svg"
     version="1.1" width="575px" height="575px" viewBox="-2 -2 579 579">
    <defs />
    <g transform="translate(-107.73,-241.82)">
		<circle cx="396" cy="529" r="285" style="fill:#ffffff; stroke:#000000; stroke-width:1;" />
		<circle cx="396" cy="529" r="281" style="fill:#004488; stroke:none;" />
        <g transform="translate(646.98,16.16)" style="fill:#ffffff;fill-rule:evenodd;stroke:none;">
            <path
                 d="M -493.74,138.21 C -491.81,148.18 -492.35,189.23 -492.35,189.23 -498.39,202.27 -483.9,147.93 -475.06,140.8 -455.11,144.34 -415.52,128.65 -407.27,111.4 -403.09,124.6 -327.1,140.8 -316.48,140.8 -317.12,135.98 -323.72,129.36 -319.07,131.29 -315.08,132.95 -290.54,136.48 -290.54,136.48 -290.86,134.87 -300.91,120.92 -300.91,120.92 -254.26,114.48 -228.68,163.61 -224.82,177.12 -221.54,158.85 -238.66,126.1 -238.66,126.1"
                 transform="translate(107.73,241.82)"
                 style="fill:none;stroke:#ffffff;stroke-width:6;stroke-linecap:butt;stroke-linejoin:miter;stroke-miterlimit:4;stroke-opacity:1;" />
            <path
                 d="M -361.06,58.406 C -421.01,58.197 -480.64,81.231 -529.81,128.31 L -522.28,176.84 -522.19,176.84 C -528.2,178.44 -529.3,182.87 -529.19,187.5 -529.05,193.29 -529.31,199.43 -521.59,199.22 -517.97,199.12 -517.65,212.9 -524.09,216.53 -558.37,235.85 -564.26,246.93 -561.19,280.87 -558.32,312.55 -555.76,319.12 -548.22,351.78 -543.36,372.84 -528.04,381.34 -503.25,384.66 -478.68,387.94 -480.31,386.86 -463.12,404.41 L -451.37,400.81 C -460.59,389.03 -477.31,309.41 -477.31,309.41 L -472.41,305.09 -475.87,278.28 -484.72,276.37 C -484.72,276.38 -490.08,224.72 -492.87,204.78 -494.29,194.7 -497.78,198.27 -500.66,202.19 -503.47,206.01 -507.94,213.19 -511.03,197.87 -511.87,193.71 -504.82,201.25 -504.97,185.78 -505.05,177.64 -508.88,176.19 -513.34,176.09 L -517.69,140.44 C -409.3,77.662 -305.51,77.256 -202.56,140.03 L -202.47,139.94 C -202.4,140.1 -202.33,140.26 -202.25,140.44 L -206.59,176.09 C -211.06,176.19 -214.89,177.64 -214.97,185.78 -215.12,201.25 -208.07,193.71 -208.91,197.87 -212,213.19 -216.47,206.01 -219.28,202.19 -222.16,198.27 -225.65,194.7 -227.06,204.78 -229.86,224.72 -235.22,276.38 -235.22,276.37 L -244.06,278.28 -247.53,305.09 -242.62,309.41 C -242.62,309.41 -259.35,389.03 -268.56,400.81 L -256.81,404.41 C -239.63,386.86 -241.25,387.94 -216.69,384.66 -191.89,381.34 -176.58,372.84 -171.72,351.78 -164.18,319.12 -161.62,312.55 -158.75,280.87 -155.67,246.93 -161.57,235.85 -195.84,216.53 -202.28,212.9 -201.96,199.12 -198.34,199.22 -190.63,199.43 -190.89,193.29 -190.75,187.5 -190.64,182.87 -191.74,178.44 -197.75,176.84 L -197.66,176.84 -190.37,129.94 C -191.16,130.05 -191.99,130.18 -192.84,130.34 L -190.41,127.91 C -240.84,82.08 -301.11,58.615 -361.06,58.406 z M -190.37,129.94 C -185.42,129.22 -182.51,129.35 -190.12,128.31 L -190.37,129.94 z M -364.78,71.469 C -321.08,71.163 -275.7,82.21 -240.66,105.34 -310.78,73.112 -422.77,76.667 -478.78,105.72 -450.51,83.434 -408.48,71.775 -364.78,71.469 z"
                 transform="translate(107.73,241.82)" />
            <g>
                <path
                     d="M -241.61,721.58 -282.25,721.58 -330.67,681.81 -342.78,652.41"
                     id="path1934"
                     style="fill:none;stroke:#ffffff;stroke-width:7;stroke-linecap:butt;stroke-linejoin:miter;stroke-miterlimit:4;" />
                <path
                     d="M -262.89,721.58 -222.25,721.58 -173.82,681.81 -161.72,652.41"
                     id="path3738"
                     style="fill:none;stroke:#ffffff;stroke-width:7;stroke-linecap:butt;stroke-linejoin:miter;stroke-miterlimit:4;" />
            </g>
        </g>
    </g>
</svg>
